<?xml version="1.0" standalone="no"?>
<!DOCTYPE svg PUBLIC "-//W3C//DTD SVG 1.1//EN" "http://www.w3.org/Graphics/SVG/1.1/DTD/svg11.dtd" >
<!--
2013-9-30: Created.
-->
<svg>
<metadata>
Created by iconfont
</metadata>
<defs>

<font id="iconfont" horiz-adv-x="1024" >
  <font-face
    font-family="iconfont"
    font-weight="500"
    font-stretch="normal"
    units-per-em="1024"
    ascent="896"
    descent="-128"
  />
    <missing-glyph />
    
    <glyph glyph-name="x" unicode="x" horiz-adv-x="1001"
d="M281 543q-27 -1 -53 -1h-83q-18 0 -36.5 -6t-32.5 -18.5t-23 -32t-9 -45.5v-76h912v41q0 16 -0.5 30t-0.5 18q0 13 -5 29t-17 29.5t-31.5 22.5t-49.5 9h-133v-97h-438v97zM955 310v-52q0 -23 0.5 -52t0.5 -58t-10.5 -47.5t-26 -30t-33 -16t-31.5 -4.5q-14 -1 -29.5 -0.5
t-29.5 0.5h-32l-45 128h-439l-44 -128h-29h-34q-20 0 -45 1q-25 0 -41 9.5t-25.5 23t-13.5 29.5t-4 30v167h911zM163 247q-12 0 -21 -8.5t-9 -21.5t9 -21.5t21 -8.5q13 0 22 8.5t9 21.5t-9 21.5t-22 8.5zM316 123q-8 -26 -14 -48q-5 -19 -10.5 -37t-7.5 -25t-3 -15t1 -14.5
t9.5 -10.5t21.5 -4h37h67h81h80h64h36q23 0 34 12t2 38q-5 13 -9.5 30.5t-9.5 34.5q-5 19 -11 39h-368zM336 498v228q0 11 2.5 23t10 21.5t20.5 15.5t34 6h188q31 0 51.5 -14.5t20.5 -52.5v-227h-327z" />
    

    
    <glyph glyph-name="jinlingyingcaiwangtubiao21" unicode="&#59059;" d="M512.794 748.851c-254.080 0-460.774-206.694-460.774-460.774s206.694-460.774 460.774-460.774c254.106 0 460.826 206.694 460.826 460.774s-206.72 460.774-460.826 460.774zM245.325 340.531c-10.598 0-19.2 8.602-19.2 19.2 0 67.891 48.614 123.136 108.365 123.136s108.39-55.245 108.39-123.136c0-10.598-8.602-19.2-19.2-19.2s-19.2 8.602-19.2 19.2c0 46.72-31.411 84.736-69.99 84.736s-69.965-38.016-69.965-84.736c0-10.598-8.602-19.2-19.2-19.2zM743.475 158.336c-34.765-97.024-127.411-162.202-230.528-162.202-103.526 0-196.275 65.536-230.835 163.098-3.533 10.010 1.69 20.966 11.699 24.525 10.035 3.533 20.992-1.69 24.525-11.699 29.107-82.253 107.341-137.523 194.637-137.523 86.938 0 165.069 54.963 194.381 136.755 3.584 10.010 14.541 15.181 24.55 11.597 9.958-3.584 15.155-14.566 11.571-24.55zM780.288 340.531c-10.598 0-19.2 8.602-19.2 19.2 0 46.72-31.386 84.736-69.965 84.736s-69.99-38.016-69.99-84.736c0-10.598-8.602-19.2-19.2-19.2s-19.2 8.602-19.2 19.2c0 67.891 48.614 123.136 108.39 123.136s108.365-55.245 108.365-123.136c0-10.598-8.576-19.2-19.2-19.2z"  horiz-adv-x="1024" />

    
    <glyph glyph-name="mianxingtubiaoshuxiaoshuo1" unicode="&#59606;" d="M671.288889 4.155022c-46.648889 0-101.671822-13.744356-113.777778-45.511111-0.750933-0.022756-1.524622-0.022756-2.321067-0.045511-0.841956-2.366578-2.139022-4.323556-3.436089-6.417067-0.796444-1.319822-1.570133-2.594133-2.548622-3.777422-1.319822-1.570133-2.707911-2.958222-4.278044-4.278044-1.706667-1.456356-3.549867-2.639644-5.5296-3.731911-1.365333-0.728178-2.594133-1.547378-4.073244-2.116267-3.731911-1.410844-7.668622-2.389333-11.923911-2.389333s-8.192 0.978489-11.923911 2.389333c-1.456356 0.546133-2.707911 1.388089-4.073244 2.116267-1.979733 1.092267-3.822933 2.275556-5.506844 3.709156-1.592889 1.342578-3.003733 2.707911-4.3008 4.278044-0.978489 1.183289-1.729422 2.4576-2.525867 3.754667-1.342578 2.093511-2.616889 4.096-3.458844 6.439822-0.773689 0.022756-1.547378 0.022756-2.321067 0.045511-12.105956 31.766756-67.128889 45.511111-113.777778 45.511111l-250.311111 0 0 659.911111 272.156444 0c51.473067 0 96.756622-23.324444 126.065778-58.9824 29.309156 35.6352 74.592711 58.9824 126.065778 58.9824L921.6 664.043378l0-659.911111L671.288889 4.132267zM557.511111 476.355556c0 18.8416-15.291733 34.133333-34.133333 34.133333s-34.133333-15.291733-34.133333-34.133333L489.244444 83.822222c0-18.8416 15.291733-34.133333 34.133333-34.133333s34.133333 15.291733 34.133333 34.133333L557.511111 476.355556z"  horiz-adv-x="1024" />

    
    <glyph glyph-name="fenleiye02wenxuexiaoshuo" unicode="&#58934;" d="M744.618477 543.38608l-31.615045 0.059352 0-149.445684L673.73815 434.516534l-40.33873-40.978297L633.399419 543.592788l-59.763129 0.109494c-21.858844-0.004093-39.643905-17.791202-39.643905-39.653115l0-303.227116c8.222265 6.871501 22.763446 16.508999 39.650045 16.508999l170.980139-0.11768c3.088338 0.301875 13.757329 9.03784 13.757329 13.760398l0.004093 298.652937C758.382968 533.838633 751.329319 543.38608 744.618477 543.38608zM512.000512 831.929776c-247.385297 0-447.930799-200.545502-447.930799-447.930799 0-247.384273 200.545502-447.929776 447.930799-447.929776 247.38325 0 447.928752 200.545502 447.928752 447.929776C959.928241 631.385297 759.383762 831.929776 512.000512 831.929776zM801.249265 222.269525c0-26.375717-21.468964-47.834448-47.859008-47.834448L554.901601 174.435077c-11.502985 0-25.066909-18.72548-29.027104-31.155581-0.13917-0.528026-1.893116-7.568373 0.26299-18.450211l0.968048-4.888334-31.014364 0 0.844228 4.801353c0.01228 0.074701 1.39579 8.382924-0.342808 19.878746-2.362814 15.603373-16.273638 29.815049-29.185716 29.815049L270.5903 174.4361c-26.37981 0-47.840588 21.458731-47.840588 47.834448l0 317.050959c0 26.369577 21.460778 47.823192 47.840588 47.823192l196.815551 0c19.49296 0 36.300764-11.713786 43.747363-28.470425 7.445576 16.756639 24.251334 28.470425 43.74327 28.470425l198.493773 0c26.38902 0 47.859008-21.453614 47.859008-47.823192L801.249265 222.269525zM450.910155 543.14458l-170.511465 0.2415c-3.536546 0-13.753235-6.996344-13.753235-13.759375l0-298.652937c0-7.734148 11.580756-13.131065 14.054087-13.760398l170.208567 0.12075 0.00307 0c16.884552 0 31.41857-9.635451 39.637766-16.507976L490.548944 503.491465C490.547921 525.356448 472.766952 543.14458 450.910155 543.14458z"  horiz-adv-x="1024" />

    
    <glyph glyph-name="tuichu" unicode="&#58891;" d="M752.881664 701.415424c28.171264-20.035584 53.215232-42.728448 75.127808-68.08576 21.912576-25.35424 40.691712-52.74624 56.346624-82.172928 15.648768-29.425664 27.547648-60.567552 35.683328-93.438976 8.141824-32.866304 12.209152-66.205696 12.209152-100.011008 0-58.227712-11.113472-112.852992-33.339392-163.87584-22.2208-51.024896-52.273152-95.475712-90.15296-133.351424-37.874688-37.878784-82.326528-67.931136-133.351424-90.157056-51.022848-22.221824-105.648128-33.333248-163.874816-33.333248-57.595904 0-111.906816 11.112448-162.935808 33.333248-51.022848 22.22592-95.629312 52.279296-133.818368 90.157056-38.193152 37.874688-68.240384 82.326528-90.15296 133.351424-21.912576 51.022848-32.8704 105.648128-32.8704 163.87584 0 33.178624 3.912704 65.736704 11.74016 97.666048 7.821312 31.930368 18.934784 62.290944 33.338368 91.088896 14.399488 28.803072 32.238592 55.724032 53.528576 80.76288 21.284864 25.043968 45.074432 47.584256 71.36768 67.618816 13.776896 10.016768 28.643328 13.771776 44.61056 11.267072 15.963136-2.50368 28.952576-10.331136 38.970368-23.4752 10.016768-13.149184 13.776896-27.86304 11.272192-44.138496-2.504704-16.280576-10.331136-29.425664-23.48032-39.442432-39.443456-28.797952-69.650432-64.17408-90.621952-106.121216-20.975616-41.946112-31.461376-87.021568-31.461376-135.226368 0-41.324544 7.827456-80.294912 23.48032-116.92032 15.648768-36.624384 37.093376-68.554752 64.32768-95.789056 27.234304-27.234304 59.163648-48.833536 95.789056-64.795648 36.625408-15.967232 75.595776-23.948288 116.916224-23.948288 41.319424 0 80.293888 7.981056 116.919296 23.948288 36.624384 15.962112 68.554752 37.561344 95.789056 64.795648 27.234304 27.234304 48.833536 59.164672 64.796672 95.789056 15.966208 36.625408 23.948288 75.595776 23.948288 116.92032 0 48.832512-11.268096 95.002624-33.80736 138.513408-22.539264 43.51488-54.155264 79.353856-94.849024 107.529216-13.775872 9.39008-22.070272 22.224896-24.88832 38.5024-2.813952 16.280576 0.472064 31.301632 9.862144 45.078528 9.391104 13.145088 22.22592 21.13024 38.5024 23.944192C724.078592 714.092544 739.104768 710.805504 752.881664 701.415424L752.881664 701.415424zM511.529984 354.888704c-16.277504 0-30.206976 5.789696-41.78944 17.371136-11.580416 11.582464-17.371136 25.511936-17.371136 41.792512L452.369408 770.911232c0 16.27648 5.789696 30.360576 17.371136 42.256384 11.582464 11.894784 25.511936 17.844224 41.78944 17.844224 16.903168 0 31.147008-5.94944 42.728448-17.844224 11.585536-11.894784 17.376256-25.979904 17.376256-42.256384l0-356.85888c0-16.280576-5.79072-30.211072-17.376256-41.792512C542.676992 360.6784 528.433152 354.888704 511.529984 354.888704L511.529984 354.888704zM511.529984 354.888704"  horiz-adv-x="1024" />

    
    <glyph glyph-name="shipin" unicode="&#58887;" d="M63.465962 102.860948c0-55.038524 44.620243-99.708909 99.709933-99.708909l697.969529 0c55.04057 0 99.709933 44.669362 99.709933 99.708909L960.855356 701.121568c0 55.089689-44.669362 99.709933-99.709933 99.709933L163.174871 800.8315c-55.089689 0-99.709933-44.620243-99.709933-99.709933L63.464939 102.860948zM761.435491 401.99177 362.59576 152.716426 362.59576 651.267113 761.435491 401.99177z"  horiz-adv-x="1024" />

    
    <glyph glyph-name="tubiao1shuxiaoshuo" unicode="&#58960;" d="M671.288889 77.6192c-46.648889 0-124.404622-13.744356-136.533333-45.4656l0-0.705422c-27.0336-0.705422-33.427911 0-45.511111 0-12.105956 31.766756-89.884444 45.511111-136.533333 45.511111l-250.311111 0 0 659.911111 272.156444 0c58.732089 0 109.522489-30.173867 137.4208-74.706489 27.898311 44.532622 78.711467 74.706489 137.466311 74.706489L921.6 736.8704l0-659.2512L671.288889 77.6192zM489.244444 600.337067c0 53.202489-57.457778 91.022222-113.777778 91.022222l-227.555556 0 0-568.888889c0 0 162.178844 0 204.8 0 45.147022 0.796444 116.349156-0.477867 136.533333-33.723733l0 25.486222c-0.864711 31.493689-0.045511 74.501689 0 76.276622L489.244444 585.659733c0 0.022756 0 0.022756 0 0.045511L489.244444 600.337067zM876.088889 691.4048l-227.555556 0c-56.32 0-113.777778-37.796978-113.777778-90.9312l0-14.904889c0-0.022756 0-0.022756 0-0.045511l0-394.467556c0.045511-1.752178 0.864711-44.760178 0-76.1856l0-25.463467c20.184178 33.200356 91.386311 34.497422 136.533333 33.678222 42.621156 0 204.8 0 204.8 0L876.088889 691.4048z"  horiz-adv-x="1024" />

    
    <glyph glyph-name="xiazai" unicode="&#58905;" d="M512 861.866667C248.081067 861.866667 34.133333 647.918933 34.133333 384s213.947733-477.866667 477.866667-477.866667 477.866667 213.947733 477.866667 477.866667S775.918933 861.866667 512 861.866667zM438.408533 449.4336 438.408533 621.499733l138.615467 0 0-172.100267 75.741867 0-145.066667-159.300267-145.066667 159.300267L438.408533 449.399467zM758.033067 204.356267c0-22.528-18.261333-40.789333-40.823467-40.789333L306.756267 163.566933c-22.528 0-40.789333 18.261333-40.789333 40.789333l0 131.2768 46.933333 0 0-105.847467c0-9.864533 7.9872-17.885867 17.885867-17.885867L693.248 211.899733c9.864533 0 17.885867 7.9872 17.885867 17.885867l0 105.847467 46.933333 0L758.0672 204.356267z"  horiz-adv-x="1024" />

    
    <glyph glyph-name="dingyue-copy" unicode="&#59200;" d="M826.53 837.847c-17.761 17.188-42.209 27.889-68.951 27.889h-500.649c-26.747 0-51.19-10.701-68.91-27.889-18.084-17.531-29.322-41.805-29.322-68.552v-830.049h0.133c-0.026-5.555 1.418-11.228 4.46-16.338 8.94-15.104 28.365-20.045 43.315-10.998l282.076 169.82c5.719 3.487 12.124 5.228 18.524 5.228 6.39 0 12.79-1.746 18.555-5.228l280.090-168.617c5.212-3.702 11.505-5.868 18.248-5.868 17.531 0 31.703 14.285 31.703 31.928v830.121c0.005 26.747-11.208 51.021-29.271 68.552zM821.062-49.628l-259.942 149.14c-16.896 10.24-35.446 15.319-53.914 15.319-18.483 0-37.038-5.079-53.903-15.319l-259.86-149.079v830.797c0 15.811 7.281 30.275 20.255 40.32 7.875 6.062 23.020 10.532 33.464 10.532h520.187c10.465 0 28.605-4.593 35.84-10.532 16.051-13.169 17.213-23.337 17.874-40.32v-830.858zM688.387 722.529h-362.266c-13.834 0-25.052-11.213-25.052-25.052 0-13.829 11.213-25.052 25.052-25.052h362.266c13.829 0 25.052 11.218 25.052 25.052s-11.223 25.052-25.052 25.052z"  horiz-adv-x="1024" />

    
    <glyph glyph-name="shipin1" unicode="&#58954;" d="M391.817077 217.383888c0.098794 0.197588 0.098794 0 0.197588 0.296382-0.197588 0.49397-0.296382 0.49397-0.395176 0.691558L391.817077 217.383888zM505.825374 805.010709c-235.920116 0-427.185335-191.265219-427.185335-427.185335S269.905258-49.261167 505.825374-49.261167s427.185335 191.265219 427.185335 427.185335S741.74549 805.010709 505.825374 805.010709zM505.825374-4.309889c-211.122817 0-382.135263 171.11124-382.135263 382.135263S294.702557 760.059431 505.825374 760.059431s382.135263-171.11124 382.135263-382.135263S716.948191-4.309889 505.825374-4.309889zM690.668982 401.634732l0.197588-0.098794c4.050555-2.568644 6.421611-4.346937 6.816787-4.840907l-6.816787 4.840907C648.681524 428.704293 423.233575 557.729281 415.922817 557.729281c-7.014375 0-13.04081-3.457791-17.190159-8.496286-2.766233-2.766233-6.322817-10.472166-7.409551-14.423927-1.284322-4.544525-0.790352-312.97945 0.592764-317.128799 3.260203-12.05287 19.067246-21.438302 31.120116-18.276893 2.766233 0.98794 5.334877 2.371056 7.508345 4.248143l260.816208 149.672938c10.472166 2.766233 16.794983 12.645634 16.202219 23.019006C708.056729 386.81563 701.042354 398.769706 690.668982 401.634732zM438.349059 258.383406 438.349059 494.599904 644.137 376.442258 438.349059 258.383406z"  horiz-adv-x="1145" />

    
    <glyph glyph-name="1xiaoshuoicon" unicode="&#58928;" d="M1024 735.638l0.008 95.967-320.012 0.031c-62.971 0-149.941-30.022-194.728-83.769C463.616 802.327 383.32 832 319.993 832L95.997 832 0 832l0-736.348 0.015-96.029 289.082 0.023c67.924-0.253 144.521-23.88 176.083-74.986 6.962-12.313 25.284-21.105 46.806-21.105 21.607 0 39.976 8.851 46.888 21.226 31.611 51.023 108.146 74.613 176.008 74.866l289.127-0.023L1024 95.652 1024 735.638zM512.467-32.252c-0.16 0.001-0.32 0.008-0.48 0.008-0.134 0-0.267-0.006-0.401-0.006-5.602 13.521-16.321 27.25-31.509 39.25L480 7l0 0.057C441 38.351 373.855 62.954 288.001 64L256 63.969 256 64 64.017 64 64 159.651 64 768l95.996 0 95.998 0C344.367 768 480 728.013 480 639.64L480 384l0-192 64 0L544 384 544 639.64c0 88.373 135.636 127.997 223.993 127.997l192.017-0.031L960 671.639l0-511.987L960.009 64 768 64l0-0.021-32.043 0.008 0.045 0.013C614.365 63.999 536.962 17.869 512.467-32.252z"  horiz-adv-x="1025" />

    
    <glyph glyph-name="search1" unicode="&#59176;" d="M430.72 113.6C229.44 113.6 66.272 273.92 66.272 472 66.272 670.08 229.44 830.72 430.72 830.72 632 830.72 795.2 670.08 795.2 472 795.2 273.92 632 113.6 430.72 113.6L430.72 113.6ZM1014.016-72 749.728 188.16C818.912 263.36 861.44 362.56 861.44 472 861.44 706.24 668.608 896 430.72 896 192.832 896 0 706.24 0 472 0 238.08 192.832 48.32 430.72 48.32 533.504 48.32 627.776 83.84 701.824 143.04L967.168-118.08C980.128-130.88 1001.088-130.88 1014.016-118.08 1026.976-105.6 1026.976-84.8 1014.016-72L1014.016-72Z"  horiz-adv-x="1024" />

    
    <glyph glyph-name="xiaolian-copy" unicode="&#58914;" d="M198.716-96c-74.269 0-134.699 60.293-134.699 134.4s60.43 134.4 134.699 134.4c74.269 0 134.699-60.293 134.699-134.4s-60.43-134.4-134.699-134.4zM198.716 122.942c-46.778 0-84.829-37.927-84.829-84.53s38.051-84.542 84.829-84.542c46.765 0 84.829 37.927 84.829 84.53s-38.051 84.542-84.829 84.542zM820.721-96c-74.282 0-134.711 60.293-134.711 134.4s60.43 134.4 134.711 134.4c74.269 0 134.699-60.293 134.699-134.4s-60.43-134.4-134.699-134.4zM820.721 122.942c-46.778 0-84.842-37.927-84.842-84.53s38.063-84.542 84.842-84.542 84.829 37.927 84.829 84.53-38.051 84.542-84.829 84.542zM515.316 121.334c-163.774 0-177.376 118.654-177.487 119.838-1.346 13.715 8.665 25.908 22.367 27.266 13.565 1.384 25.758-8.528 27.242-22.105 0.461-3.64 11.196-75.117 127.88-75.117 117.182 0 127.518 72.099 127.904 75.167 1.683 13.539 13.814 23.289 27.529 21.868 13.565-1.508 23.402-13.49 22.068-27.067-0.137-1.222-13.739-119.85-177.501-119.85zM768.045 454.355c-12.468 0-23.227 9.338-24.723 22.018-2.855 23.614-17.255 75.341-41.517 75.341-24.087 0-37.004-51.329-39.21-74.755-1.297-13.715-13.278-23.713-27.167-22.492-13.715 1.284-23.776 13.452-22.492 27.155 4.189 44.559 27.616 119.962 88.856 119.962 60.842 0 85.864-75.054 91.050-119.389 1.609-13.677-8.179-26.057-21.868-27.666-0.985-0.125-1.958-0.174-2.93-0.174zM429.614 454.355c-12.468 0-23.227 9.325-24.723 21.993v0c-2.855 23.614-17.255 75.353-41.517 75.353-24.075 0-37.004-51.329-39.21-74.755-1.297-13.715-13.452-23.776-27.155-22.492-13.715 1.284-23.788 13.452-22.492 27.155 4.177 44.559 27.603 119.962 88.856 119.962 60.829 0 85.852-75.054 91.038-119.389 1.596-13.677-8.191-26.057-21.868-27.666-0.985-0.112-1.97-0.162-2.93-0.162zM686.009 38.4c0 5.71 0.473 11.296 1.16 16.807-53.411-26.842-113.666-42.053-177.463-42.053-63.784 0-124.040 15.21-177.45 42.053 0.685-5.523 1.16-11.108 1.16-16.807 0-12.654-1.87-24.848-5.124-36.455 55.468-24.76 116.833-38.649 181.428-38.649 64.595 0 125.96 13.889 181.428 38.649-3.266 11.607-5.137 23.813-5.137 36.455zM191.983 172.763c-49.035 65.716-78.097 147.080-78.097 235.101 0 217.645 177.562 394.71 395.831 394.71 218.269 0 395.831-177.064 395.831-394.71 0-88.021-29.062-169.384-78.097-235.101 18.515-0.923 36.007-5.536 51.803-13.191 48.062 70.941 76.151 156.405 76.151 248.291 0 245.137-199.942 444.579-445.702 444.579s-445.689-199.431-445.689-444.567c0-91.885 28.089-177.351 76.151-248.291 15.809 7.642 33.301 12.268 51.815 13.178z"  horiz-adv-x="1024" />

    
    <glyph glyph-name="yuyin" unicode="&#58989;" d="M827.246871 444.924581c-12.94994 0.588401-23.925922-9.432837-24.51637-22.382776-0.093121-2.062985-0.418532-6.353708-1.106194-12.542664-1.170662-10.54824-2.959402-22.35924-5.490038-35.106566-7.226588-36.413328-18.898419-72.794933-35.917024-106.534362-47.672766-94.508467-126.925784-150.334937-248.217245-150.71663-121.290437 0.381693-200.546525 56.208163-248.217245 150.71663-17.018605 33.739429-28.692482 70.120011-35.919071 106.534362-2.529613 12.747325-4.317329 24.558325-5.487991 35.106566-0.687662 6.188956-1.014096 10.479679-1.108241 12.542664-0.588401 12.94994-11.564383 22.971178-24.514323 22.382776-12.951987-0.588401-22.973224-11.564383-22.382776-24.51637 0.5137-11.339256 2.63092-30.394241 7.446599-54.654784 8.000208-40.316218 20.946055-80.665181 40.051181-118.537743 51.840692-102.776781 138.972145-167.127392 265.456884-175.017082l0-85.599563L291.185872-13.400962c-12.96529 0-23.473621-10.510378-23.473621-23.473621 0-12.96529 10.508331-23.473621 23.473621-23.473621l441.857477 0c12.963243 0 23.473621 10.508331 23.473621 23.473621 0 12.963243-10.510378 23.473621-23.473621 23.473621L534.272259-13.400962l0 85.454254c127.791501 7.209192 215.690434 71.734788 267.86063 175.162392 19.104103 37.872562 32.050973 78.221526 40.051181 118.537743 4.815679 24.260543 6.930853 43.315528 7.446599 54.654784C850.217025 433.360198 840.197834 444.33618 827.246871 444.924581zM510.171352 195.80785c106.568131 0 193.353706 86.506213 193.353706 193.220676L703.525058 635.128551c0 106.59269-86.567611 193.220676-193.353706 193.220676-106.570177 0-193.353706-86.508259-193.353706-193.220676l0-246.100024C316.817646 282.432767 403.385257 195.80785 510.171352 195.80785zM363.764887 635.128551c0 80.693834 65.674769 146.273435 146.407488 146.273435 80.8197 0 146.407488-65.570391 146.407488-146.273435l0-246.100024c0-80.69588-65.674769-146.273435-146.407488-146.273435-80.8197 0-146.407488 65.568345-146.407488 146.273435L363.764887 635.128551z"  horiz-adv-x="1024" />

    
    <glyph glyph-name="qietu19" unicode="&#59166;" d="M950.458182 534.807273l-282.996364 25.134545L558.545455 823.389091c-16.756364 40.96-75.403636 40.96-93.090909 0L356.538182 559.941818 73.541818 534.807273c-43.752727-3.723636-61.44-58.647273-28.858182-87.505455l215.04-189.905455L195.490909-24.669091c-10.24-43.752727 37.236364-77.265455 75.403636-53.992727L512 70.283636l241.105455-148.014545c38.167273-23.272727 84.712727 10.24 75.403636 53.992727l-64.232727 281.134545 215.04 189.905455C1011.898182 476.16 994.210909 531.083636 950.458182 534.807273zM833.163636 415.650909l-127.534545-84.712727c-7.447273-4.654545-14.894545-6.516364-23.272727-6.516364-13.032727 0-26.065455 6.516364-34.443636 18.618182-13.032727 18.618182-7.447273 44.683636 11.170909 56.785455l127.534545 84.712727c18.618182 13.032727 44.683636 7.447273 56.785455-11.170909C857.367273 453.818182 852.712727 427.752727 833.163636 415.650909z"  horiz-adv-x="1024" />

    
    <glyph glyph-name="xing" unicode="&#58885;" d="M269.6704-53.0432c-39.2192 0-71.0144 31.3088-71.0144 69.9392 0 1.4592 0.0256 2.9184 0.128 4.352l14.336 225.5616-148.3008 179.7888a69.1712 69.1712 0 0 0 10.368 98.3552 71.4752 71.4752 0 0 0 27.8272 13.6448l224.256 54.1696 124.544 195.5328c20.8384 32.7168 64.6656 42.5984 97.8944 22.0928 9.0624-5.6064 16.7424-13.1584 22.4256-22.0928l124.5696-195.5328 224.2304-54.1696c38.0928-9.1904 61.4144-47.0528 52.0704-84.5568a68.9664 68.9664 0 0 0-13.8496-27.4432l-148.2752-179.7888 13.8752-218.496c6.3232-38.2208-19.9936-74.2144-58.8032-80.4352a69.248 69.248 0 0 0-11.2896-0.9216h-0.3584a71.7824 71.7824 0 0 0-25.3184 4.5568L512 32.9728l-217.0112-81.4336a71.7824 71.7824 0 0 0-25.3184-4.5568v-0.0256z"  horiz-adv-x="1024" />

    
    <glyph glyph-name="WiFi" unicode="&#59031;" d="M512-128c282.77 0 512 229.23 512 512S794.77 896 512 896 0 666.77 0 384s229.23-512 512-512z m-0.42 312c-3.83 0-12.718 7.023-26.665 21.07-13.946 14.044-20.926 22.979-20.94 26.809 0 6.118 5.98 11.282 17.93 15.49 11.954 4.208 21.845 6.311 29.675 6.311 7.831 0 17.722-2.103 29.674-6.31 11.952-4.21 17.93-9.373 17.93-15.491 0-3.83-6.98-12.764-20.938-26.81C524.284 191.023 515.397 184 511.58 184z m77.424 77.698c-0.38 0-4.204 2.392-11.472 7.178-7.267 4.783-16.966 9.559-29.103 14.33-12.137 4.774-24.42 7.164-36.85 7.177-12.43 0.012-24.712-2.38-36.85-7.177-12.135-4.796-21.788-9.572-28.957-14.33-7.17-4.762-11.041-7.153-11.617-7.178-3.437 0-12.372 7.17-26.81 21.508-14.434 14.34-21.654 23.229-21.654 26.665 0 2.484 0.953 4.68 2.862 6.588 14.914 14.718 33.65 26.285 56.21 34.7 22.56 8.417 44.83 12.626 66.816 12.626 21.986 0 44.257-4.208 66.816-12.625 22.561-8.416 41.297-19.983 56.21-34.701 1.91-1.91 2.862-4.104 2.862-6.588 0-3.436-7.218-12.326-21.654-26.665-14.436-14.338-23.37-21.508-26.809-21.508z m78.267 77.993c-2.104 0-4.3 0.766-6.588 2.294-25.998 20.076-50.086 34.843-72.267 44.3-22.181 9.455-47.8 14.184-76.856 14.184-16.248 0-32.543-2.105-48.885-6.31-16.345-4.21-30.587-9.274-42.723-15.197-12.136-5.922-22.983-11.847-32.536-17.779-9.556-5.935-17.104-10.999-22.646-15.197-5.543-4.196-8.502-6.302-8.882-6.313-3.253 0-12.044 7.168-26.37 21.51-14.327 14.337-21.496 23.223-21.509 26.66 0 2.289 0.957 4.394 2.865 6.316 25.239 25.238 55.824 44.83 91.756 58.778 35.93 13.946 72.254 20.927 108.967 20.939 36.715 0.012 73.038-6.968 108.97-20.939 35.93-13.973 66.516-33.564 91.755-58.778 1.908-1.91 2.864-4.014 2.864-6.315 0-3.438-7.17-12.324-21.51-26.661-14.338-14.342-23.127-21.51-26.368-21.51l-0.037 0.018z m77.717 77.717c-2.105 0-4.21 0.862-6.312 2.587-34.219 30.012-69.729 52.615-106.53 67.808-36.798 15.195-76.988 22.793-120.566 22.793-43.579 0-83.768-7.598-120.566-22.793-36.802-15.194-72.311-37.796-106.53-67.808-2.105-1.725-4.207-2.587-6.312-2.587-3.254 0-12.093 7.169-26.518 21.507-14.424 14.339-21.642 23.228-21.654 26.665 0 2.484 0.954 4.68 2.862 6.588 35.75 35.552 78.282 63.08 127.595 82.58C409.774 574.248 460.142 584 511.56 584c51.421 0 101.789-9.752 151.105-29.252 49.314-19.5 91.846-47.028 127.593-82.58 1.91-1.908 2.865-4.104 2.865-6.588 0-3.437-7.219-12.326-21.655-26.665-14.436-14.338-23.276-21.507-26.518-21.507h0.038z"  horiz-adv-x="1024" />

    
    <glyph glyph-name="toutiao" unicode="&#58965;" d="M778.24-87.04H245.76c-65.536 0-118.784 53.248-118.784 116.736V736.256C126.976 801.792 180.224 855.04 245.76 855.04h413.696l237.568-235.52v-587.776c0-65.536-53.248-118.784-118.784-118.784zM659.456 795.648v-116.736c0-32.768 26.624-59.392 59.392-59.392h118.784l-178.176 176.128z m178.176-235.52h-118.784c-65.536 0-118.784 53.248-118.784 116.736 0 0-2.048 47.104 0 116.736H245.76c-32.768 0-59.392-26.624-59.392-59.392v-706.56c0-32.768 26.624-59.392 59.392-59.392h532.48c32.768 0 59.392 26.624 59.392 59.392v532.48z m-147.456-411.648H333.824c-16.384 0-28.672 12.288-28.672 28.672 0 16.384 12.288 28.672 28.672 28.672h354.304c16.384 0 28.672-12.288 28.672-28.672 2.048-14.336-10.24-28.672-26.624-28.672z m0 176.128H333.824c-16.384 0-28.672 12.288-28.672 28.672 0 16.384 12.288 28.672 28.672 28.672h354.304c16.384 0 28.672-12.288 28.672-28.672 2.048-14.336-10.24-28.672-26.624-28.672z"  horiz-adv-x="1024" />

    
    <glyph glyph-name="wangzhi" unicode="&#58923;" d="M924.24 558.158c-22.533 53.277-54.789 101.124-95.875 142.209-41.084 41.085-88.93 73.341-142.209 95.876-55.162 23.331-113.756 35.161-174.152 35.161-60.403 0-119.002-11.83-174.17-35.162-53.283-22.534-101.131-54.793-142.218-95.88-41.087-41.087-73.343-88.936-95.873-142.214-23.327-55.166-35.151-113.762-35.14-174.16-0.003-60.398 11.823-118.992 35.152-174.154 22.532-53.277 54.787-101.123 95.87-142.208 41.085-41.085 88.929-73.341 142.208-95.874 55.157-23.326 113.74-35.155 174.147-35.154 0.007 0 0.019 0 0.027 0h0.040c60.387 0.004 118.973 11.838 174.129 35.172 53.272 22.535 101.114 54.795 142.196 95.88 41.082 41.086 73.337 88.93 95.869 142.206 23.329 55.161 35.156 113.753 35.154 174.143 0.003 60.4-11.824 118.995-35.155 174.159zM942.938 392.186h-196.954c-0.746 55.252-9.057 109.495-24.749 161.647 23.831 9.858 45.723 21.617 65.385 35.176 34.685 23.92 54.462 47.829 64.080 61.673 58.182-73.596 90.485-163.523 92.237-258.495zM536.182-46.351c-5.309-0.295-10.644-0.492-16.003-0.592v281.542c76.415-0.853 135.667-13.597 180.65-30.148-19.105-57.777-44.861-104.904-68.246-140.063-44.289-66.586-89.15-104.775-96.401-110.739zM391.755 63.859c-23.515 35.271-49.414 82.574-68.599 140.592 45.032 16.571 104.277 29.295 180.65 30.148v-281.544c-5.35 0.099-10.681 0.295-15.996 0.586-7.197 5.91-51.763 43.781-96.055 110.218zM487.803 814.359c5.316 0.293 10.652 0.488 16.002 0.587v-281.543c-76.413 0.853-135.665 13.596-180.647 30.146 19.104 57.777 44.859 104.905 68.244 140.065 44.288 66.586 89.145 104.776 96.401 110.745zM632.583 703.613c23.387-35.16 49.14-82.287 68.245-140.064-45.032-16.572-104.276-29.294-180.649-30.148v281.544c5.35-0.099 10.682-0.295 15.999-0.586 7.248-5.963 52.113-44.155 96.405-110.746zM343.56 539.378c47.587-14.205 101.469-21.699 160.246-22.337v-124.855l-209.428 0c0.809 57.699 10.113 109.772 23.826 155.623 8.248-3.025 16.694-5.846 25.357-8.432zM503.806 375.814v-124.855c-58.777-0.636-112.659-8.13-160.246-22.337-8.662-2.586-17.111-5.407-25.359-8.432-13.714 45.858-23.013 97.93-23.823 155.623l209.427 0zM680.424 228.622c-47.587 14.207-101.469 21.7-160.246 22.337l-0 124.855h209.431c-0.809-57.7-10.114-109.772-23.826-155.624-8.25 3.026-16.696 5.847-25.36 8.433zM520.179 392.186v124.855c58.777 0.638 112.659 8.132 160.246 22.337 8.663 2.586 17.111 5.407 25.36 8.433 13.711-45.851 23.016-97.924 23.826-155.624l-209.431 0zM816.789 688.79c8.044-8.044 15.725-16.354 23.047-24.903-7.244-11.208-26.020-36.232-62.511-61.398-15.72-10.842-35.864-22.4-61.074-32.899-0.503 1.516-1.008 3.031-1.525 4.543-16.622 48.676-39.794 95.473-68.874 139.092-31.776 47.664-63.297 80.744-82.374 98.776 95.65-11.31 184.161-54.062 253.31-123.21zM207.195 688.784c69.146 69.146 157.655 111.9 253.306 123.214-19.076-18.033-50.595-51.112-82.369-98.773-29.079-43.618-52.25-90.416-68.872-139.093-0.516-1.511-1.021-3.026-1.524-4.54-24.731 10.3-44.559 21.601-60.079 32.212-36.933 25.249-56.114 50.746-63.49 62.099 7.316 8.541 14.99 16.844 23.027 24.881zM173.285 650.68c9.619-13.844 29.397-37.752 64.078-61.671 19.662-13.56 41.555-25.32 65.387-35.177-15.691-52.151-24.001-106.393-24.748-161.646l-196.943-0c1.744 94.97 34.043 184.895 92.225 258.493zM81.060 375.814h196.944c0.746-55.252 9.055-109.495 24.747-161.646-23.832-9.859-45.725-21.618-65.387-35.178-34.683-23.92-54.459-47.826-64.078-61.672-58.176 73.596-90.476 163.522-92.225 258.495zM207.204 79.202c-8.046 8.046-15.729 16.359-23.053 24.911 7.245 11.209 26.019 36.232 62.508 61.397 15.721 10.843 35.865 22.401 61.076 32.901 0.503-1.517 1.009-3.032 1.526-4.545 16.622-48.676 39.792-95.473 68.872-139.091 31.778-47.668 63.302-80.748 82.377-98.778-95.647 11.308-184.162 54.060-253.305 123.203zM512.036-53.614h0.011v-1.601l-0.011 1.601zM563.518-43.961c19.081 18.040 50.582 51.106 82.336 98.738 29.079 43.617 52.252 90.414 68.874 139.091 0.516 1.511 1.020 3.025 1.524 4.539 24.73-10.299 44.558-21.6 60.077-32.211 36.739-25.117 55.906-50.473 63.363-61.907-68.592-80.242-166.072-135.082-276.174-148.25zM850.561 117.52c-9.671 13.876-29.429 37.67-63.94 61.47-19.662 13.56-41.553 25.319-65.385 35.177 15.691 52.151 24.002 106.394 24.749 161.647h196.953c-1.817-97.345-36.064-186.903-92.376-258.294z"  horiz-adv-x="1024" />

    
    <glyph glyph-name="rijianmoshi" unicode="&#58926;" d="M512 703.4c-175.8 0-318.4-142.5-318.4-318.4 0-175.8 142.5-318.4 318.4-318.4 175.8 0 318.4 142.5 318.4 318.4 0 175.8-142.6 318.4-318.4 318.4z m0-594.3c-152.1 0-275.9 123.8-275.9 275.9S359.9 660.9 512 660.9 787.9 537.1 787.9 385 664.1 109.1 512 109.1zM512 724.6c11.7 0 21.2 9.5 21.2 21.2V809.5c0 11.7-9.5 21.2-21.2 21.2s-21.2-9.5-21.2-21.2v-63.7c0-11.7 9.5-21.2 21.2-21.2zM512 45.4c-11.7 0-21.2-9.5-21.2-21.2v-63.7c0-11.7 9.5-21.2 21.2-21.2s21.2 9.5 21.2 21.2v63.7c0 11.7-9.5 21.2-21.2 21.2zM151.2 406.2H87.5c-11.7 0-21.2-9.5-21.2-21.2s9.5-21.2 21.2-21.2h63.7c11.7 0 21.2 9.5 21.2 21.2s-9.5 21.2-21.2 21.2zM936.5 406.2h-63.7c-11.7 0-21.2-9.5-21.2-21.2s9.5-21.2 21.2-21.2h63.7c11.7 0 21.2 9.5 21.2 21.2s-9.5 21.2-21.2 21.2zM242.2 620.4c4.1-4.1 9.6-6.2 15-6.2s10.9 2.1 15 6.2c8.3 8.3 8.3 21.7 0 30l-45 45c-8.3 8.3-21.7 8.3-30 0s-8.3-21.7 0-30l45-45zM782.5 140.1c-8.3 8.3-21.7 8.3-30 0s-8.3-21.7 0-30l45-45c4.1-4.1 9.6-6.2 15-6.2s10.9 2.1 15 6.2c8.3 8.3 8.3 21.7 0 30l-45 45zM248.4 133.9l-45-45c-8.3-8.3-8.3-21.7 0-30 4.1-4.1 9.6-6.2 15-6.2s10.9 2.1 15 6.2l45 45c8.3 8.3 8.3 21.7 0 30s-21.7 8.3-30 0zM803.7 689.2l-45-45c-8.3-8.3-8.3-21.7 0-30 4.1-4.1 9.6-6.2 15-6.2s10.9 2.1 15 6.2l45 45c8.3 8.3 8.3 21.7 0 30s-21.7 8.3-30 0z"  horiz-adv-x="1024" />

    
    <glyph glyph-name="gongjuxiang" unicode="&#58911;" d="M704.137 670.137v73.64s-6.651 13.599-10 16.439c-4.46 3.783-21.148 8-21.148 8H348.972s-15.986-3.064-20.922-8c-4.798-4.798-7-19.139-7-19.139v-71.3H128.025V449h768.149V670.137H704.137zM874.12 467.978H150.05v184.13h190.485l0.537 88.367h341.489v-88.096H874.12v-184.401zM814.008 467.336v-316.187H212.384V468.336h-20.256v-316.651h0.699v-36.65c0-11.418 21.317-25.674 29.109-25.674h582.207c7.792 0 28.109 12.256 28.109 23.674V467.336h-18.244zM333.925 752.452h352.033v-43.118H333.925z"  horiz-adv-x="1024" />

    
    <glyph glyph-name="zhuye" unicode="&#59023;" d="M88.838 400.323l-36.045 41.506 466.398 401.954 465.306-401.954-36.045-41.506-429.261 371.371zM841.41-70.444h-641.161c-32.768 0-60.075 27.307-60.075 60.075v431.445h54.613v-431.445c0-3.277 2.185-5.461 5.461-5.461h641.161c3.277 0 5.461 2.185 5.461 5.461v431.445h54.613v-431.445c0-32.768-27.307-60.075-60.075-60.075z"  horiz-adv-x="1024" />

    
    <glyph glyph-name="richscan_icon" unicode="&#58634;" d="M39.78 495.11a27.77 27.77 0 0 1 27.78 27.78V828.44h305.55a27.78 27.78 0 1 1 0 55.56H39.78A27.77 27.77 0 0 1 12 856.22v-333.33a27.77 27.77 0 0 1 27.78-27.78zM373.11-60.440000000000055H67.56V245.11a27.78 27.78 0 1 1-55.56 0v-333.33A27.77 27.77 0 0 1 39.78-116h333.33a27.78 27.78 0 0 1 0 55.56zM984.22 884H650.89a27.78 27.78 0 1 1 0-55.56h305.55v-305.55a27.78 27.78 0 1 1 55.56 0V856.22A27.76 27.76 0 0 1 984.22 884zM984.22 272.89a27.76 27.76 0 0 1-27.78-27.78v-305.55H650.89a27.78 27.78 0 1 1 0-55.56h333.33a27.76 27.76 0 0 1 27.78 27.78V245.11a27.76 27.76 0 0 1-27.78 27.78zM984.22 411.78H39.78a27.78 27.78 0 0 1 0-55.56h944.44a27.78 27.78 0 0 1 0 55.56z"  horiz-adv-x="1024" />

    
    <glyph glyph-name="daohang" unicode="&#58627;" d="M1022.1999998046876 748.2333336914063H101.80000039062497a39.43333300781251 39.43333300781251 0 0 0 0 78.8999994140625h920.3999994140624a39.43333300781251 39.43333300781251 0 0 0 0-78.8999994140625z m0-394.4666671874999H101.80000039062497a39.43333300781251 39.43333300781251 0 0 0 0 78.90000029296876h920.3999994140624a39.43333300781251 39.43333300781251 0 0 0 0-78.90000029296876z m0-394.46666630859374H101.80000039062497a39.43333300781251 39.43333300781251 0 0 0 0 78.8999994140625h920.3999994140624a39.43333300781251 39.43333300781251 0 0 0 0-78.8999994140625z"  horiz-adv-x="1137" />

    
    <glyph glyph-name="shuaxin" unicode="&#59017;" d="M518.4-41.60000000000002C288-41.60000000000002 99.2 147.20000000000005 99.2 377.6c0 230.4 188.8 416 419.2 416 150.4 0 291.2-83.2 364.8-214.4 6.4-12.8 3.2-25.6-9.6-32-12.8-6.4-25.6-3.2-32 9.6-64 118.4-188.8 192-323.2 192-204.8-3.2-371.2-169.6-371.2-371.2 0-204.8 166.4-371.2 371.2-371.2 147.2 0 278.4 86.4 339.2 220.8 6.4 12.8 19.2 16 32 12.8 12.8-6.4 19.2-19.2 12.8-32-67.2-150.4-217.6-249.6-384-249.6zM924.8 502.4h-294.4c-12.8 0-25.6 9.6-25.6 25.6s9.6 25.6 25.6 25.6h246.4V784c0 12.8 9.6 25.6 25.6 25.6s25.6-9.6 25.6-25.6v-281.6z"  horiz-adv-x="1024" />

    
    <glyph glyph-name="yejianmoshi" unicode="&#58930;" d="M737.2 721.3C843.3 647.2 910 524.8 910 388.3 910 164.2 727.7-18 503.6-18c-124.3 0-237.8 55.6-313.2 147 47.6-17.4 98.2-26.5 149.9-26.5 240.8 0 436.8 195.9 436.8 436.8 0 63.3-13.9 125.4-39.9 182M606.7 827.2c77.4-71.7 125.9-174.1 125.9-287.9C732.6 322.6 557 147 340.3 147 237.5 147 144 186.6 74.1 251.3c58-181.9 228.4-313.8 429.5-313.8 249 0 450.8 201.8 450.8 450.8 0 213.6-148.4 392.3-347.7 438.9zM300.9 830.4l-16.5-33.5-36.9-5.4 26.7-26-6.3-36.8 33 17.3 33.1-17.3-6.3 36.8 26.7 26-36.9 5.4-16.6 33.5zM123 585.7l-16.5-33.4-36.9-5.4 26.7-26.1L90 484l33 17.4 33.1-17.4-6.3 36.8 26.7 26.1-37 5.4-16.5 33.4zM501.1 474.6l-16.5-33.5-37-5.4 26.8-26.1-6.4-36.8 33.1 17.4 33-17.4-6.3 36.8 26.8 26.1-37 5.4-16.5 33.5z"  horiz-adv-x="1024" />

    
    <glyph glyph-name="xing1" unicode="&#58888;" d="M512.278 831.8c-246.763 0-446.803-200.041-446.803-446.803s200.041-446.803 446.803-446.803 446.803 200.04 446.803 446.803S759.041 831.8 512.278 831.8z m257.634-406.011l-123.33-104.61L680.286 168.9c1.164-5.486-0.975-11.323-6.137-14.814-5.13-3.49-11.738-3.55-17.025-0.85L512.237 230.24s-86.92-46.232-144.95-76.975c-5.192-2.728-11.8-2.67-16.93 0.822-5.161 3.49-7.302 9.328-6.169 14.844 13.469 60.928 33.735 152.25 33.799 152.25 0 0-74.049 62.776-123.33 104.697-4.405 3.726-6.389 9.622-4.405 15.284 1.982 5.662 7.27 9.387 13.248 10.062l165.783 17.132 68.699 141.69c2.455 5.045 7.899 8.624 14.255 8.624 6.357 0 11.77-3.55 14.35-8.625l68.699-141.689s99.476-10.267 165.814-17.19c5.98-0.646 11.267-4.37 13.217-10.003 1.952-5.635 0.001-11.532-4.405-15.374zM650.069 409.414c-36.736 3.833-91.824 9.52-91.824 9.52l-38.043 78.462c-1.43 2.81-4.427 4.775-7.947 4.775-3.52 0-6.535-1.982-7.895-4.775l-38.043-78.463-91.805-9.487c-3.312-0.374-6.24-2.437-7.337-5.572-1.098-3.136 0-6.401 2.44-8.464 27.29-23.214 68.296-57.979 68.296-57.979-0.035 0-11.258-50.57-18.717-84.31-0.627-3.054 0.558-6.288 3.416-8.221 2.84-1.933 6.5-1.966 9.376-0.455 32.135 17.024 80.269 42.626 80.269 42.626l80.234-42.643c2.928-1.494 6.587-1.462 9.428 0.47 2.858 1.934 4.043 5.167 3.398 8.205l-18.664 84.327 68.297 57.93c2.44 2.128 3.52 5.393 2.44 8.512s-4.009 5.184-7.32 5.542z"  horiz-adv-x="1024" />

    


  </font>
</defs>
</svg>
